<mxfile host="Electron" modified="2024-04-07T18:41:54.925Z" agent="Mozilla/5.0 (Windows NT 10.0; Win64; x64) AppleWebKit/537.36 (KHTML, like Gecko) draw.io/23.1.5 Chrome/120.0.6099.109 Electron/28.1.0 Safari/537.36" etag="VnmrRGGZ5HoGpH61DVhU" version="23.1.5" type="device">
  <diagram name="Page-1" id="Q2jrl0EPPh4zTyjgIuCV">
    <mxGraphModel dx="1020" dy="496" grid="1" gridSize="10" guides="1" tooltips="1" connect="1" arrows="1" fold="1" page="1" pageScale="1" pageWidth="850" pageHeight="1100" math="0" shadow="0">
      <root>
        <mxCell id="0" />
        <mxCell id="1" parent="0" />
        <mxCell id="y7XFRKePpTQs9cDkfSXT-26" value="" style="rounded=0;whiteSpace=wrap;html=1;" parent="1" vertex="1">
          <mxGeometry x="120" y="40" width="680" height="490" as="geometry" />
        </mxCell>
        <mxCell id="y7XFRKePpTQs9cDkfSXT-9" value="Private subnet" style="points=[[0,0],[0.25,0],[0.5,0],[0.75,0],[1,0],[1,0.25],[1,0.5],[1,0.75],[1,1],[0.75,1],[0.5,1],[0.25,1],[0,1],[0,0.75],[0,0.5],[0,0.25]];outlineConnect=0;gradientColor=none;html=1;whiteSpace=wrap;fontSize=12;fontStyle=0;container=1;pointerEvents=0;collapsible=0;recursiveResize=0;shape=mxgraph.aws4.group;grIcon=mxgraph.aws4.group_security_group;grStroke=0;strokeColor=#00A4A6;fillColor=#E6F6F7;verticalAlign=top;align=left;spacingLeft=30;fontColor=#147EBA;dashed=0;" parent="1" vertex="1">
          <mxGeometry x="520" y="150" width="150" height="190" as="geometry" />
        </mxCell>
        <mxCell id="y7XFRKePpTQs9cDkfSXT-10" value="Availability zone" style="sketch=0;outlineConnect=0;gradientColor=none;html=1;whiteSpace=wrap;fontSize=12;fontStyle=0;shape=mxgraph.aws4.group;grIcon=mxgraph.aws4.group_availability_zone;strokeColor=#E8E8E8;fillColor=none;verticalAlign=top;align=left;spacingLeft=30;fontColor=#E8E8E8;dashed=1;" parent="y7XFRKePpTQs9cDkfSXT-9" vertex="1">
          <mxGeometry x="-40" y="-65" width="260" height="395" as="geometry" />
        </mxCell>
        <mxCell id="y7XFRKePpTQs9cDkfSXT-19" value="" style="outlineConnect=0;dashed=0;verticalLabelPosition=bottom;verticalAlign=top;align=center;html=1;shape=mxgraph.aws3.rds;fillColor=#2E73B8;gradientColor=none;" parent="y7XFRKePpTQs9cDkfSXT-9" vertex="1">
          <mxGeometry x="30" y="38.5" width="72" height="81" as="geometry" />
        </mxCell>
        <mxCell id="y7XFRKePpTQs9cDkfSXT-20" value="&lt;b&gt;RDS&lt;/b&gt;" style="text;html=1;align=center;verticalAlign=middle;resizable=0;points=[];autosize=1;strokeColor=none;fillColor=#1D1A02;" parent="y7XFRKePpTQs9cDkfSXT-9" vertex="1">
          <mxGeometry x="41" y="119.5" width="50" height="30" as="geometry" />
        </mxCell>
        <mxCell id="y7XFRKePpTQs9cDkfSXT-25" value="" style="outlineConnect=0;dashed=0;verticalLabelPosition=bottom;verticalAlign=top;align=center;html=1;shape=mxgraph.aws3.virtual_private_cloud;fillColor=#F58534;gradientColor=none;" parent="1" vertex="1">
          <mxGeometry x="130" y="20" width="79.5" height="54" as="geometry" />
        </mxCell>
        <mxCell id="y7XFRKePpTQs9cDkfSXT-28" value="" style="sketch=0;outlineConnect=0;fontColor=#232F3E;gradientColor=none;fillColor=#8C4FFF;strokeColor=none;dashed=0;verticalLabelPosition=bottom;verticalAlign=top;align=center;html=1;fontSize=12;fontStyle=0;aspect=fixed;pointerEvents=1;shape=mxgraph.aws4.internet_gateway;" parent="1" vertex="1">
          <mxGeometry x="405" y="24" width="56" height="56" as="geometry" />
        </mxCell>
        <mxCell id="y7XFRKePpTQs9cDkfSXT-29" value="" style="outlineConnect=0;dashed=0;verticalLabelPosition=bottom;verticalAlign=top;align=center;html=1;shape=mxgraph.aws3.application_load_balancer;fillColor=#F58534;gradientColor=none;" parent="1" vertex="1">
          <mxGeometry x="413" y="110" width="59" height="60" as="geometry" />
        </mxCell>
        <mxCell id="y7XFRKePpTQs9cDkfSXT-52" value="" style="edgeStyle=orthogonalEdgeStyle;rounded=0;orthogonalLoop=1;jettySize=auto;html=1;" parent="1" source="y7XFRKePpTQs9cDkfSXT-30" target="y7XFRKePpTQs9cDkfSXT-40" edge="1">
          <mxGeometry relative="1" as="geometry" />
        </mxCell>
        <mxCell id="y7XFRKePpTQs9cDkfSXT-30" value="" style="outlineConnect=0;dashed=0;verticalLabelPosition=bottom;verticalAlign=top;align=center;html=1;shape=mxgraph.aws3.route_table;fillColor=#F58536;gradientColor=none;" parent="1" vertex="1">
          <mxGeometry x="290" y="12.5" width="50" height="47.5" as="geometry" />
        </mxCell>
        <mxCell id="y7XFRKePpTQs9cDkfSXT-37" value="Internet facing ALB" style="text;html=1;align=center;verticalAlign=middle;whiteSpace=wrap;rounded=0;" parent="1" vertex="1">
          <mxGeometry x="405" y="170" width="75" height="30" as="geometry" />
        </mxCell>
        <mxCell id="y7XFRKePpTQs9cDkfSXT-40" value="IGW" style="text;html=1;align=center;verticalAlign=middle;resizable=0;points=[];autosize=1;strokeColor=none;fillColor=none;" parent="1" vertex="1">
          <mxGeometry x="450" y="10" width="50" height="30" as="geometry" />
        </mxCell>
        <mxCell id="y7XFRKePpTQs9cDkfSXT-47" value="" style="endArrow=classic;html=1;rounded=0;" parent="1" source="y7XFRKePpTQs9cDkfSXT-28" edge="1">
          <mxGeometry width="50" height="50" relative="1" as="geometry">
            <mxPoint x="425" y="80" as="sourcePoint" />
            <mxPoint x="439" y="110" as="targetPoint" />
          </mxGeometry>
        </mxCell>
        <mxCell id="y7XFRKePpTQs9cDkfSXT-50" value="ASG" style="text;html=1;align=center;verticalAlign=middle;whiteSpace=wrap;rounded=0;" parent="1" vertex="1">
          <mxGeometry x="405" y="260" width="60" height="30" as="geometry" />
        </mxCell>
        <mxCell id="y7XFRKePpTQs9cDkfSXT-51" value="Network&#xa;access&#xa;control list" style="sketch=0;outlineConnect=0;fontColor=#232F3E;gradientColor=none;strokeColor=#232F3E;fillColor=#ffffff;dashed=0;verticalLabelPosition=bottom;verticalAlign=top;align=center;html=1;fontSize=12;fontStyle=0;aspect=fixed;shape=mxgraph.aws4.resourceIcon;resIcon=mxgraph.aws4.network_access_control_list;" parent="1" vertex="1">
          <mxGeometry x="405" y="280" width="60" height="60" as="geometry" />
        </mxCell>
        <mxCell id="y7XFRKePpTQs9cDkfSXT-56" value="" style="endArrow=none;dashed=1;html=1;dashPattern=1 3;strokeWidth=2;rounded=0;" parent="1" edge="1">
          <mxGeometry width="50" height="50" relative="1" as="geometry">
            <mxPoint x="410" y="950" as="sourcePoint" />
            <mxPoint x="460" y="900" as="targetPoint" />
          </mxGeometry>
        </mxCell>
        <mxCell id="y7XFRKePpTQs9cDkfSXT-60" value="TGW" style="text;html=1;align=center;verticalAlign=middle;whiteSpace=wrap;rounded=0;" parent="1" vertex="1">
          <mxGeometry x="390" y="80" width="60" height="30" as="geometry" />
        </mxCell>
        <mxCell id="y7XFRKePpTQs9cDkfSXT-62" value="&lt;div&gt;&lt;br/&gt;&lt;/div&gt;" style="rounded=0;whiteSpace=wrap;html=1;" parent="1" vertex="1">
          <mxGeometry x="155" y="80" width="235" height="400" as="geometry" />
        </mxCell>
        <mxCell id="y7XFRKePpTQs9cDkfSXT-63" value="&lt;blockquote style=&quot;margin: 0 0 0 40px; border: none; padding: 0px;&quot;&gt;Public subnet&lt;/blockquote&gt;" style="rounded=0;whiteSpace=wrap;html=1;" parent="1" vertex="1">
          <mxGeometry x="180" y="120" width="170" height="110" as="geometry" />
        </mxCell>
        <mxCell id="y7XFRKePpTQs9cDkfSXT-64" value="" style="rounded=0;whiteSpace=wrap;html=1;" parent="1" vertex="1">
          <mxGeometry x="180" y="280" width="170" height="110" as="geometry" />
        </mxCell>
        <mxCell id="y7XFRKePpTQs9cDkfSXT-65" value="" style="outlineConnect=0;dashed=0;verticalLabelPosition=bottom;verticalAlign=top;align=center;html=1;shape=mxgraph.aws3.vpc_nat_gateway;fillColor=#F58534;gradientColor=none;" parent="1" vertex="1">
          <mxGeometry x="190" y="125" width="40.5" height="30" as="geometry" />
        </mxCell>
        <mxCell id="y7XFRKePpTQs9cDkfSXT-68" value="NAT GATEWAY" style="text;html=1;align=center;verticalAlign=middle;whiteSpace=wrap;rounded=0;" parent="1" vertex="1">
          <mxGeometry x="180" y="150" width="60" height="30" as="geometry" />
        </mxCell>
        <mxCell id="y7XFRKePpTQs9cDkfSXT-69" value="Private Subnet" style="text;html=1;align=center;verticalAlign=middle;whiteSpace=wrap;rounded=0;" parent="1" vertex="1">
          <mxGeometry x="180" y="280" width="60" height="30" as="geometry" />
        </mxCell>
        <mxCell id="y7XFRKePpTQs9cDkfSXT-72" value="" style="sketch=0;points=[[0,0,0],[0.25,0,0],[0.5,0,0],[0.75,0,0],[1,0,0],[0,1,0],[0.25,1,0],[0.5,1,0],[0.75,1,0],[1,1,0],[0,0.25,0],[0,0.5,0],[0,0.75,0],[1,0.25,0],[1,0.5,0],[1,0.75,0]];outlineConnect=0;fontColor=#232F3E;fillColor=#ED7100;strokeColor=#ffffff;dashed=0;verticalLabelPosition=bottom;verticalAlign=top;align=center;html=1;fontSize=12;fontStyle=0;aspect=fixed;shape=mxgraph.aws4.resourceIcon;resIcon=mxgraph.aws4.ec2;" parent="1" vertex="1">
          <mxGeometry x="240" y="290" width="40" height="40" as="geometry" />
        </mxCell>
        <mxCell id="y7XFRKePpTQs9cDkfSXT-73" value="EC2--wordpress" style="text;html=1;align=center;verticalAlign=middle;whiteSpace=wrap;rounded=0;" parent="1" vertex="1">
          <mxGeometry x="230" y="330" width="60" height="30" as="geometry" />
        </mxCell>
        <mxCell id="y7XFRKePpTQs9cDkfSXT-76" value="AZ!" style="text;html=1;align=center;verticalAlign=middle;whiteSpace=wrap;rounded=0;" parent="1" vertex="1">
          <mxGeometry x="140" y="74" width="60" height="30" as="geometry" />
        </mxCell>
        <mxCell id="y7XFRKePpTQs9cDkfSXT-79" value="" style="endArrow=none;dashed=1;html=1;rounded=0;exitX=0.98;exitY=0.33;exitDx=0;exitDy=0;exitPerimeter=0;" parent="1" source="y7XFRKePpTQs9cDkfSXT-64" target="y7XFRKePpTQs9cDkfSXT-51" edge="1">
          <mxGeometry width="50" height="50" relative="1" as="geometry">
            <mxPoint x="350" y="330" as="sourcePoint" />
            <mxPoint x="400" y="280" as="targetPoint" />
          </mxGeometry>
        </mxCell>
        <mxCell id="y7XFRKePpTQs9cDkfSXT-80" value="" style="outlineConnect=0;dashed=0;verticalLabelPosition=bottom;verticalAlign=top;align=center;html=1;shape=mxgraph.aws3.router;fillColor=#F58536;gradientColor=none;" parent="1" vertex="1">
          <mxGeometry x="365" y="220" width="40" height="40" as="geometry" />
        </mxCell>
        <mxCell id="y7XFRKePpTQs9cDkfSXT-81" value="" style="endArrow=classic;html=1;rounded=0;entryX=1;entryY=1;entryDx=0;entryDy=0;" parent="1" target="y7XFRKePpTQs9cDkfSXT-69" edge="1">
          <mxGeometry width="50" height="50" relative="1" as="geometry">
            <mxPoint x="209.5" y="154" as="sourcePoint" />
            <mxPoint x="259.5" y="104" as="targetPoint" />
          </mxGeometry>
        </mxCell>
        <mxCell id="y7XFRKePpTQs9cDkfSXT-88" value="" style="endArrow=classic;html=1;rounded=0;" parent="1" edge="1">
          <mxGeometry width="50" height="50" relative="1" as="geometry">
            <mxPoint x="400" y="250" as="sourcePoint" />
            <mxPoint x="350" y="290" as="targetPoint" />
            <Array as="points">
              <mxPoint x="370" y="280" />
            </Array>
          </mxGeometry>
        </mxCell>
        <mxCell id="y7XFRKePpTQs9cDkfSXT-92" value="" style="endArrow=none;dashed=1;html=1;rounded=0;" parent="1" source="y7XFRKePpTQs9cDkfSXT-64" edge="1">
          <mxGeometry width="50" height="50" relative="1" as="geometry">
            <mxPoint x="380" y="210" as="sourcePoint" />
            <mxPoint x="430" y="160" as="targetPoint" />
          </mxGeometry>
        </mxCell>
        <mxCell id="y7XFRKePpTQs9cDkfSXT-95" value="" style="endArrow=none;dashed=1;html=1;dashPattern=1 3;strokeWidth=2;rounded=0;entryX=0.855;entryY=0.145;entryDx=0;entryDy=0;entryPerimeter=0;" parent="1" target="y7XFRKePpTQs9cDkfSXT-29" edge="1">
          <mxGeometry width="50" height="50" relative="1" as="geometry">
            <mxPoint x="160" y="120" as="sourcePoint" />
            <mxPoint x="210" y="70" as="targetPoint" />
          </mxGeometry>
        </mxCell>
        <mxCell id="y7XFRKePpTQs9cDkfSXT-96" value="" style="endArrow=none;dashed=1;html=1;dashPattern=1 3;strokeWidth=2;rounded=0;entryX=0.855;entryY=0.145;entryDx=0;entryDy=0;entryPerimeter=0;" parent="1" edge="1">
          <mxGeometry width="50" height="50" relative="1" as="geometry">
            <mxPoint x="158" y="240.5" as="sourcePoint" />
            <mxPoint x="461" y="239.5" as="targetPoint" />
          </mxGeometry>
        </mxCell>
        <mxCell id="y7XFRKePpTQs9cDkfSXT-97" value="" style="endArrow=none;dashed=1;html=1;dashPattern=1 3;strokeWidth=2;rounded=0;" parent="1" edge="1">
          <mxGeometry width="50" height="50" relative="1" as="geometry">
            <mxPoint x="170" y="240" as="sourcePoint" />
            <mxPoint x="170" y="120" as="targetPoint" />
          </mxGeometry>
        </mxCell>
        <mxCell id="y7XFRKePpTQs9cDkfSXT-98" value="" style="endArrow=none;dashed=1;html=1;dashPattern=1 3;strokeWidth=2;rounded=0;" parent="1" edge="1">
          <mxGeometry width="50" height="50" relative="1" as="geometry">
            <mxPoint x="465" y="235" as="sourcePoint" />
            <mxPoint x="465" y="115" as="targetPoint" />
          </mxGeometry>
        </mxCell>
        <mxCell id="y7XFRKePpTQs9cDkfSXT-99" value="" style="endArrow=none;dashed=1;html=1;dashPattern=1 3;strokeWidth=2;rounded=0;entryX=0.855;entryY=0.145;entryDx=0;entryDy=0;entryPerimeter=0;" parent="1" edge="1">
          <mxGeometry width="50" height="50" relative="1" as="geometry">
            <mxPoint x="155" y="260" as="sourcePoint" />
            <mxPoint x="458" y="259" as="targetPoint" />
          </mxGeometry>
        </mxCell>
        <mxCell id="y7XFRKePpTQs9cDkfSXT-100" value="" style="endArrow=none;dashed=1;html=1;dashPattern=1 3;strokeWidth=2;rounded=0;entryX=0.855;entryY=0.145;entryDx=0;entryDy=0;entryPerimeter=0;" parent="1" edge="1">
          <mxGeometry width="50" height="50" relative="1" as="geometry">
            <mxPoint x="163.5" y="401" as="sourcePoint" />
            <mxPoint x="466.5" y="400" as="targetPoint" />
          </mxGeometry>
        </mxCell>
        <mxCell id="y7XFRKePpTQs9cDkfSXT-101" value="" style="endArrow=none;dashed=1;html=1;dashPattern=1 3;strokeWidth=2;rounded=0;" parent="1" edge="1">
          <mxGeometry width="50" height="50" relative="1" as="geometry">
            <mxPoint x="180" y="250" as="sourcePoint" />
            <mxPoint x="180" y="130" as="targetPoint" />
          </mxGeometry>
        </mxCell>
        <mxCell id="y7XFRKePpTQs9cDkfSXT-102" value="" style="endArrow=none;dashed=1;html=1;dashPattern=1 3;strokeWidth=2;rounded=0;exitX=0.018;exitY=0.786;exitDx=0;exitDy=0;exitPerimeter=0;" parent="1" source="y7XFRKePpTQs9cDkfSXT-62" edge="1">
          <mxGeometry width="50" height="50" relative="1" as="geometry">
            <mxPoint x="160" y="380" as="sourcePoint" />
            <mxPoint x="160" y="260" as="targetPoint" />
          </mxGeometry>
        </mxCell>
        <mxCell id="y7XFRKePpTQs9cDkfSXT-103" value="" style="endArrow=none;dashed=1;html=1;dashPattern=1 3;strokeWidth=2;rounded=0;exitX=0.018;exitY=0.786;exitDx=0;exitDy=0;exitPerimeter=0;" parent="1" edge="1">
          <mxGeometry width="50" height="50" relative="1" as="geometry">
            <mxPoint x="459.5" y="394" as="sourcePoint" />
            <mxPoint x="460.5" y="260" as="targetPoint" />
          </mxGeometry>
        </mxCell>
        <mxCell id="y7XFRKePpTQs9cDkfSXT-104" value="" style="outlineConnect=0;dashed=0;verticalLabelPosition=bottom;verticalAlign=top;align=center;html=1;shape=mxgraph.aws3.cloudwatch;fillColor=#759C3E;gradientColor=none;" parent="1" vertex="1">
          <mxGeometry x="395" y="340" width="50" height="61.5" as="geometry" />
        </mxCell>
        <mxCell id="y7XFRKePpTQs9cDkfSXT-109" style="edgeStyle=orthogonalEdgeStyle;rounded=0;orthogonalLoop=1;jettySize=auto;html=1;" parent="1" source="y7XFRKePpTQs9cDkfSXT-106" edge="1">
          <mxGeometry relative="1" as="geometry">
            <mxPoint x="270" y="400" as="targetPoint" />
          </mxGeometry>
        </mxCell>
        <mxCell id="y7XFRKePpTQs9cDkfSXT-106" value="" style="sketch=0;outlineConnect=0;fontColor=#232F3E;gradientColor=none;fillColor=#E7157B;strokeColor=none;dashed=0;verticalLabelPosition=bottom;verticalAlign=top;align=center;html=1;fontSize=12;fontStyle=0;aspect=fixed;pointerEvents=1;shape=mxgraph.aws4.cloudwatch_logs;" parent="1" vertex="1">
          <mxGeometry x="310" y="410" width="65.22" height="48.5" as="geometry" />
        </mxCell>
        <mxCell id="y7XFRKePpTQs9cDkfSXT-110" value="Cloud watch logs" style="text;html=1;align=center;verticalAlign=middle;whiteSpace=wrap;rounded=0;" parent="1" vertex="1">
          <mxGeometry x="243" y="450" width="60" height="30" as="geometry" />
        </mxCell>
        <mxCell id="y7XFRKePpTQs9cDkfSXT-111" value="Cloud watch alarm" style="text;html=1;align=center;verticalAlign=middle;whiteSpace=wrap;rounded=0;" parent="1" vertex="1">
          <mxGeometry x="350" y="340" width="60" height="30" as="geometry" />
        </mxCell>
      </root>
    </mxGraphModel>
  </diagram>
</mxfile>
